<?xml version="1.0" encoding="UTF-8" standalone="no"?>
<!DOCTYPE svg PUBLIC "-//W3C//DTD SVG 1.1//EN"
 "http://www.w3.org/Graphics/SVG/1.1/DTD/svg11.dtd">
<!-- Generated by graphviz version 2.40.1 (20161225.0304)
 -->
<!-- Title: %3 Pages: 1 -->
<svg width="212pt" height="212pt"
 viewBox="0.00 0.00 212.00 212.00" xmlns="http://www.w3.org/2000/svg" xmlns:xlink="http://www.w3.org/1999/xlink">
<g id="graph0" class="graph" transform="scale(1 1) rotate(0) translate(4 208)">
<title>%3</title>
<polygon fill="#ffffff" stroke="transparent" points="-4,4 -4,-208 208,-208 208,4 -4,4"/>
<!-- fake -->
<g id="node1" class="node">
<title>fake</title>
</g>
<!-- 0 -->
<g id="node2" class="node">
<title>0</title>
<ellipse fill="none" stroke="#000000" cx="77" cy="-113" rx="27" ry="18"/>
<text text-anchor="middle" x="77" y="-109.3" font-family="Times,serif" font-size="14.00" fill="#000000">0</text>
</g>
<!-- fake&#45;&gt;0 -->
<g id="edge1" class="edge">
<title>fake&#45;&gt;0</title>
<path fill="none" stroke="#000000" stroke-width="2" d="M77,-167.9551C77,-159.8828 77,-150.1764 77,-141.1817"/>
<polygon fill="#000000" stroke="#000000" stroke-width="2" points="80.5001,-141.0903 77,-131.0904 73.5001,-141.0904 80.5001,-141.0903"/>
</g>
<!-- 0&#45;&gt;0 -->
<g id="edge6" class="edge">
<title>0&#45;&gt;0</title>
<path fill="none" stroke="#000000" d="M102.4435,-119.6907C113.0278,-120.1521 122,-117.9219 122,-113 122,-109.77 118.136,-107.6992 112.4881,-106.7876"/>
<polygon fill="#000000" stroke="#000000" points="112.5987,-103.289 102.4435,-106.3093 112.2656,-110.2811 112.5987,-103.289"/>
<text text-anchor="middle" x="146" y="-109.3" font-family="Times,serif" font-size="14.00" fill="#000000">~d &amp; ~g</text>
</g>
<!-- 1 -->
<g id="node3" class="node">
<title>1</title>
<ellipse fill="none" stroke="#000000" cx="22" cy="-22" rx="18" ry="18"/>
<ellipse fill="none" stroke="#000000" cx="22" cy="-22" rx="22" ry="22"/>
<text text-anchor="middle" x="22" y="-18.3" font-family="Times,serif" font-size="14.00" fill="#000000">1</text>
</g>
<!-- 0&#45;&gt;1 -->
<g id="edge3" class="edge">
<title>0&#45;&gt;1</title>
<path fill="none" stroke="#000000" d="M66.6549,-95.8836C58.8211,-82.9222 47.8949,-64.8443 38.8113,-49.8151"/>
<polygon fill="#000000" stroke="#000000" points="41.6058,-47.6722 33.4378,-40.9243 35.615,-51.2931 41.6058,-47.6722"/>
<text text-anchor="middle" x="58.5" y="-65.8" font-family="Times,serif" font-size="14.00" fill="#000000">g</text>
</g>
<!-- 2 -->
<g id="node4" class="node">
<title>2</title>
<ellipse fill="none" stroke="#000000" cx="133" cy="-22" rx="27" ry="18"/>
<text text-anchor="middle" x="133" y="-18.3" font-family="Times,serif" font-size="14.00" fill="#000000">2</text>
</g>
<!-- 0&#45;&gt;2 -->
<g id="edge2" class="edge">
<title>0&#45;&gt;2</title>
<path fill="none" stroke="#000000" d="M87.2713,-96.3092C95.665,-82.6694 107.6695,-63.162 117.2729,-47.5566"/>
<polygon fill="#000000" stroke="#000000" points="120.344,-49.2441 122.6042,-38.8932 114.3824,-45.5754 120.344,-49.2441"/>
<text text-anchor="middle" x="128" y="-65.8" font-family="Times,serif" font-size="14.00" fill="#000000">d &amp; ~g</text>
</g>
<!-- 1&#45;&gt;1 -->
<g id="edge5" class="edge">
<title>1&#45;&gt;1</title>
<path fill="none" stroke="#000000" d="M42.5808,-30.3702C52.8447,-31.5284 62,-28.7383 62,-22 62,-17.6833 58.2427,-14.9869 52.8436,-13.9109"/>
<polygon fill="#000000" stroke="#000000" points="52.6729,-10.405 42.5808,-13.6298 52.4812,-17.4024 52.6729,-10.405"/>
<text text-anchor="middle" x="75" y="-18.3" font-family="Times,serif" font-size="14.00" fill="#000000">True</text>
</g>
<!-- 2&#45;&gt;2 -->
<g id="edge4" class="edge">
<title>2&#45;&gt;2</title>
<path fill="none" stroke="#000000" d="M157.0743,-30.4544C168.2423,-31.3767 178,-28.5586 178,-22 178,-17.5934 173.5952,-14.8754 167.3174,-13.8458"/>
<polygon fill="#000000" stroke="#000000" points="167.1726,-10.3402 157.0743,-13.5456 166.9674,-17.3372 167.1726,-10.3402"/>
<text text-anchor="middle" x="191" y="-18.3" font-family="Times,serif" font-size="14.00" fill="#000000">True</text>
</g>
</g>
</svg>
